<?xml version="1.0" encoding="UTF-8"?>
<svg id="Layer_2" data-name="Layer 2" xmlns="http://www.w3.org/2000/svg" viewBox="0 0 14.13 16.06">
  <defs>
    <style>
      .cls-1 {
        fill: #42dcdd;
      }
    </style>
  </defs>
  <g id="_文字" data-name="文字">
    <g>
      <path class="cls-1" d="M6.8,8.72s.04.02.06.03c0,0,.01,0,.02.01.02,0,.05.02.07.02,0,0,.01,0,.02,0,.06.01.12.01.18,0,0,0,0,0,.02,0,.02,0,.05-.01.07-.02,0,0,.01,0,.02-.01.02,0,.04-.02.06-.03.03-.02.05-.04.07-.06l6.59-6.59c.18-.18.18-.48,0-.67l-1.26-1.26c-.09-.09-.21-.14-.33-.14s-.25.05-.33.14l-5,5L2.06.14c-.09-.09-.21-.14-.33-.14s-.25.05-.33.14L.14,1.39c-.09.09-.14.21-.14.33s.05.24.14.33l6.59,6.59s.05.04.07.06Z"/>
      <path class="cls-1" d="M6.86,16.02s.01,0,.02.01c.02,0,.05.02.07.02,0,0,.01,0,.02,0,.06.01.12.01.18,0,0,0,0,0,.02,0,.02,0,.05-.01.07-.02,0,0,.01,0,.02-.01.02,0,.04-.02.06-.03.03-.02.05-.04.07-.06l6.59-6.59c.18-.18.18-.48,0-.67l-1.26-1.26c-.09-.09-.21-.14-.33-.14s-.25.05-.33.14l-5,5L2.06,7.41c-.09-.09-.21-.14-.33-.14s-.25.05-.33.14l-1.26,1.26c-.09.09-.14.21-.14.33s.05.24.14.33l6.59,6.59s.05.04.07.06c.02.01.04.02.06.03Z"/>
    </g>
  </g>
</svg>