<?xml version="1.0" encoding="UTF-8"?>
<svg id="Layer_2" data-name="Layer 2" xmlns="http://www.w3.org/2000/svg" viewBox="0 0 50 50">
  <defs>
    <style>
      .cls-1 {
        fill: #fff;
      }

      .cls-2 {
        fill: #ff6932;
      }
    </style>
  </defs>
  <g id="_文字" data-name="文字">
    <g>
      <circle class="cls-1" cx="25" cy="25" r="25"/>
      <g>
        <g>
          <g>
            <rect class="cls-2" x="30.58" y="21.65" width="2.98" height="15.67" transform="translate(33.91 73.01) rotate(-135)"/>
            <path class="cls-2" d="M27.59,36.88c-.2,0-.41-.08-.56-.23l-2.11-2.11c-.15-.15-.23-.35-.23-.56s.08-.41.23-.56l11.08-11.08c.31-.31.81-.31,1.13,0l2.11,2.11c.15.15.23.35.23.56s-.08.41-.23.56l-11.08,11.08c-.16.16-.36.23-.56.23ZM26.6,33.97l.98.98,9.95-9.95-.98-.98-9.95,9.95Z"/>
          </g>
          <g>
            <rect class="cls-2" x="30.58" y="12.68" width="2.98" height="15.67" transform="translate(-5.11 28.69) rotate(-45)"/>
            <path class="cls-2" d="M36.56,27.91c-.2,0-.41-.08-.56-.23l-11.08-11.08c-.31-.31-.31-.81,0-1.13l2.11-2.11c.31-.31.81-.31,1.13,0l11.08,11.08c.31.31.31.81,0,1.13l-2.11,2.11c-.16.16-.36.23-.56.23ZM26.6,16.03l9.95,9.95.98-.98-9.95-9.95-.98.98Z"/>
          </g>
        </g>
        <g>
          <rect class="cls-2" x="11.33" y="23.15" width="24.43" height="3.69"/>
          <path class="cls-2" d="M35.76,27.5H11.33c-.36,0-.65-.29-.65-.65v-3.69c0-.36.29-.65.65-.65h24.43c.36,0,.65.29.65.65v3.69c0,.36-.29.65-.65.65ZM11.98,26.2h23.13v-2.39H11.98v2.39Z"/>
        </g>
      </g>
    </g>
  </g>
</svg>