<?xml version="1.0" encoding="UTF-8"?>
<svg id="Layer_2" data-name="Layer 2" xmlns="http://www.w3.org/2000/svg" viewBox="0 0 60.07 60">
  <defs>
    <style>
      .cls-1 {
        fill: #fff;
      }
    </style>
  </defs>
  <g id="_文字" data-name="文字">
    <g>
      <path class="cls-1" d="M30.07,60h-.07C13.46,60,0,46.54,0,30S13.46,0,30,0s30.07,13.46,30.07,30-13.46,30-30,30ZM30.07,1.85C14.48,1.85,1.85,14.48,1.85,30s12.63,28.15,28.15,28.15h.07c15.52,0,28.15-12.63,28.15-28.15S45.59,1.85,30.07,1.85Z"/>
      <g>
        <path class="cls-1" d="M35.72,27.55l1.65-9.79s.3-1.02,1.3-1.06c1.01-.04,6.14.81,6.84,5.5.7,4.7-2.38,12.58-7.78,17.45-5.39,4.87-10.62,6-14.28,6.13s-6.19-2.33-7.03-6.31c0,0,.06-1.73,1.45-1.98,1.39-.25,9.28-1.58,9.28-1.58,0,0,1.63-.46,1.91,1.85,0,0,3.46-1.57,5.74-4.21.82-.95,2.4-3.11,2.76-4.27,0,0-1.87-.29-1.84-1.73Z"/>
        <g>
          <path class="cls-1" d="M21.34,32.49h0c.65,0,1.19-.53,1.18-1.19,0-2.78.76-4.91,2.28-6.32,2.43-2.27,6.09-2.03,6.13-2.03.65.04,1.22-.44,1.27-1.09.05-.65-.44-1.22-1.09-1.27-.19-.02-4.7-.33-7.91,2.64-2.03,1.88-3.06,4.6-3.05,8.08,0,.65.53,1.18,1.19,1.18Z"/>
          <path class="cls-1" d="M15.65,32.49h0c.65,0,1.18-.53,1.18-1.19-.01-4.5,1.26-8.06,3.78-10.58,4.11-4.1,10.27-4.14,10.4-4.14,0,0,0,0,0,0,.65,0,1.18-.53,1.19-1.18,0-.65-.52-1.19-1.17-1.19-.3,0-7.23,0-12.07,4.82-3,2.98-4.51,7.11-4.49,12.28,0,.65.53,1.18,1.19,1.18Z"/>
        </g>
      </g>
    </g>
  </g>
</svg>