<?xml version="1.0" encoding="UTF-8"?>
<svg id="Layer_2" data-name="Layer 2" xmlns="http://www.w3.org/2000/svg" viewBox="0 0 61.49 51.86">
  <defs>
    <style>
      .cls-1 {
        fill: #fff;
      }
    </style>
  </defs>
  <g id="_文字" data-name="文字">
    <path class="cls-1" d="M0,25.93c0,14.32,13.77,25.93,30.75,25.93,5.51,0,10.67-1.23,15.14-3.37l6.94,2.95c1.13.48,2.28-.62,1.86-1.77l-2.05-5.53c5.48-4.68,8.86-11.11,8.86-18.21C61.49,11.61,47.73,0,30.75,0S0,11.61,0,25.93ZM16.04,30.4c-2.1,0-3.78-1.68-3.78-3.78s1.68-3.78,3.78-3.78c2.22,0,3.78,1.8,3.78,3.78,0,2.1-1.68,3.78-3.78,3.78ZM31.03,30.4c-2.1,0-3.78-1.68-3.78-3.78s1.68-3.78,3.78-3.78c2.22,0,3.78,1.8,3.78,3.78,0,2.1-1.68,3.78-3.78,3.78ZM46.02,30.4c-2.1,0-3.78-1.68-3.78-3.78s1.68-3.78,3.78-3.78c2.22,0,3.78,1.8,3.78,3.78,0,2.1-1.68,3.78-3.78,3.78Z"/>
  </g>
</svg>